<svg xmlns="http://www.w3.org/2000/svg" xmlns:xlink="http://www.w3.org/1999/xlink" width="1024" height="512">\n<path  d="M 0 0
L 1024 0
L 1024 512
L 0 512
L 0 0" style="stroke-width:0;stroke:rgba(255,255,255,1.0);fill:rgba(255,255,255,1.0)"/><path  d="M 20 40
L 1014 40
L 1014 462
L 20 462
L 20 40" style="stroke-width:0;stroke:rgba(255,255,255,1.0);fill:rgba(255,255,255,1.0)"/><path  d="M 21 40
L 81 40
L 81 462
L 21 462
L 21 40" style="stroke-width:3;stroke:rgba(106,195,203,1.0);fill:rgba(106,195,203,1.0)"/><path  d="M 84 40
L 144 40
L 144 462
L 84 462
L 84 40" style="stroke-width:3;stroke:rgba(42,190,137,1.0);fill:rgba(42,190,137,1.0)"/><path  d="M 147 40
L 207 40
L 207 462
L 147 462
L 147 40" style="stroke-width:3;stroke:rgba(110,128,139,1.0);fill:rgba(110,128,139,1.0)"/><path  d="M 210 40
L 270 40
L 270 462
L 210 462
L 210 40" style="stroke-width:3;stroke:rgba(240,174,90,1.0);fill:rgba(240,174,90,1.0)"/><path  d="M 273 40
L 333 40
L 333 462
L 273 462
L 273 40" style="stroke-width:3;stroke:rgba(0,116,217,1.0);fill:rgba(0,116,217,1.0)"/><path  d="M 336 40
L 396 40
L 396 462
L 336 462
L 336 40" style="stroke-width:3;stroke:rgba(0,217,101,1.0);fill:rgba(0,217,101,1.0)"/><path  d="M 399 40
L 459 40
L 459 462
L 399 462
L 399 40" style="stroke-width:3;stroke:rgba(217,0,116,1.0);fill:rgba(217,0,116,1.0)"/><path  d="M 462 40
L 522 40
L 522 462
L 462 462
L 462 40" style="stroke-width:3;stroke:rgba(0,217,210,1.0);fill:rgba(0,217,210,1.0)"/><path  d="M 525 40
L 585 40
L 585 462
L 525 462
L 525 40" style="stroke-width:3;stroke:rgba(217,101,0,1.0);fill:rgba(217,101,0,1.0)"/><path  d="M 588 40
L 648 40
L 648 462
L 588 462
L 588 40" style="stroke-width:3;stroke:rgba(106,195,203,1.0);fill:rgba(106,195,203,1.0)"/><path  d="M 651 40
L 711 40
L 711 462
L 651 462
L 651 40" style="stroke-width:3;stroke:rgba(42,190,137,1.0);fill:rgba(42,190,137,1.0)"/><path  d="M 714 188
L 774 188
L 774 462
L 714 462
L 714 188" style="stroke-width:3;stroke:rgba(110,128,139,1.0);fill:rgba(110,128,139,1.0)"/><path  d="M 777 217
L 837 217
L 837 462
L 777 462
L 777 217" style="stroke-width:3;stroke:rgba(240,174,90,1.0);fill:rgba(240,174,90,1.0)"/><path  d="M 840 306
L 900 306
L 900 462
L 840 462
L 840 306" style="stroke-width:3;stroke:rgba(0,116,217,1.0);fill:rgba(0,116,217,1.0)"/><path  d="M 903 432
L 963 432
L 963 462
L 903 462
L 903 432" style="stroke-width:3;stroke:rgba(0,217,101,1.0);fill:rgba(0,217,101,1.0)"/><path  d="M 966 462
L 1026 462
L 1026 462
L 966 462
L 966 462" style="stroke-width:3;stroke:rgba(217,0,116,1.0);fill:rgba(217,0,116,1.0)"/></svg>